<svg width="57" height="176" viewBox="0 0 57 176" fill="none" xmlns="http://www.w3.org/2000/svg">
<path d="M14 40V60.75V81.5M14 81.5L1 68M14 81.5L27 68" stroke="#2B272F"/>
<path d="M14 0V20.75V41.5M14 41.5L1 28M14 41.5L27 28" stroke="#2B272F"/>
<path d="M14 80V100.75V121.5M14 121.5L1 108M14 121.5L27 108" stroke="#2B272F"/>
<path d="M14 120V140.75V161.5M14 161.5L1 148M14 161.5L27 148" stroke="#2B272F"/>
<path d="M14 161.7H34.75H55.5M55.5 161.7L42 174.7M55.5 161.7L42 148.7" stroke="#2B272F"/>
</svg>
