<svg width="100" height="100" viewBox="0 0 100 100" fill="none" xmlns="http://www.w3.org/2000/svg">
<path d="M50.5 23C35.3063 23 23 35.3131 23 50.5C23 62.6527 30.8787 72.9583 41.8031 76.5906C43.1781 76.8496 43.6823 75.9994 43.6823 75.2683C43.6823 74.6152 43.6594 72.885 43.6479 70.5933C35.9983 72.2525 34.385 66.9037 34.385 66.9037C33.1338 63.7298 31.3256 62.8819 31.3256 62.8819C28.8346 61.1769 31.5181 61.2113 31.5181 61.2113C34.2796 61.4038 35.7302 64.0438 35.7302 64.0438C38.1823 68.249 42.1675 67.0344 43.7396 66.3308C43.9871 64.5525 44.6952 63.3402 45.4813 62.6527C39.374 61.9652 32.955 59.6002 32.955 49.0631C32.955 46.061 34.0206 43.609 35.7852 41.684C35.4758 40.9896 34.5477 38.1938 36.0258 34.4056C36.0258 34.4056 38.329 33.6677 43.5883 37.2244C45.7883 36.6125 48.1258 36.31 50.4633 36.2963C52.8008 36.31 55.1383 36.6125 57.3383 37.2244C62.5633 33.6677 64.8665 34.4056 64.8665 34.4056C66.3446 38.1938 65.4165 40.9896 65.1415 41.684C66.8946 43.609 67.9602 46.061 67.9602 49.0631C67.9602 59.6277 61.5321 61.9537 55.4133 62.6298C56.3758 63.4548 57.2696 65.1415 57.2696 67.7173C57.2696 71.3977 57.2352 74.354 57.2352 75.2477C57.2352 75.9696 57.7165 76.829 59.1258 76.554C70.1281 72.9469 78 62.6344 78 50.5C78 35.3131 65.6869 23 50.5 23" fill="white"/>
</svg>
