<svg width="56" height="126" viewBox="0 0 56 126" fill="none" xmlns="http://www.w3.org/2000/svg">
<path d="M56 0H0V14.9H56V0Z" fill="#ffffff"/>
<path d="M22.1 36.6C24.8062 36.6 27 34.4062 27 31.7C27 28.9938 24.8062 26.8 22.1 26.8C19.3938 26.8 17.2 28.9938 17.2 31.7C17.2 34.4062 19.3938 36.6 22.1 36.6Z" fill="#ffffff"/>
<path d="M33.8 58.7C35.6778 58.7 37.2 57.1778 37.2 55.3C37.2 53.4222 35.6778 51.9 33.8 51.9C31.9222 51.9 30.4 53.4222 30.4 55.3C30.4 57.1778 31.9222 58.7 33.8 58.7Z" fill="#ffffff"/>
<path d="M46.2 66.7H9.8V19.9H4.8V69.2V102.9C4.8 115.7 15.2 126 27.9 126C40.6 126 51 115.6 51 102.9V69.2V19.9H46L46.2 66.7Z" fill="#ffffff"/>
</svg>
