<svg width="101" height="101" viewBox="0 0 101 101" fill="none" xmlns="http://www.w3.org/2000/svg">
<circle cx="50.5" cy="50.5" r="48.5" stroke="white" stroke-width="4"/>
<path d="M61 58.5C55 56.5 53.1667 48.3333 53.5 46L52.5 45C52 45.5 52.5 49.5 52.5 51.5C52.5 53.5 53.8333 56.3333 54.5 57.5C55.6667 59 59.4 62 65 62C70.6 62 74.3333 59 75.5 57.5C73.1667 58.6667 67 60.5 61 58.5Z" fill="white" stroke="white" stroke-width="3" stroke-linecap="round" stroke-linejoin="round"/>
<path d="M42.5 58C42.9 52.4 41.6667 45.3333 41 42.5L42.5 41.5C43.6667 43.8333 44.5 51 43.5 58C42.3886 65.7798 34.6667 71.5 31.5 73.5C35 70.6667 42.1 63.6 42.5 58Z" fill="white" stroke="white" stroke-width="4" stroke-linejoin="round"/>
<path d="M22.4278 47.6026C29.2319 46.1179 49.2865 40.6982 75.0722 30.8974C49.2258 41.0935 29.4595 44.6352 22.8071 45.1316L22.4278 47.6026Z" stroke="white" stroke-width="4" stroke-linecap="round" stroke-linejoin="round"/>
</svg>
