<svg width="100" height="100" viewBox="0 0 100 100" fill="none" xmlns="http://www.w3.org/2000/svg">
<path d="M38.405 75.3975C61.99 75.3975 74.89 55.8575 74.89 38.9125C74.89 38.3575 74.89 37.805 74.8525 37.255C77.3621 35.4398 79.5284 33.1922 81.25 30.6175C78.9097 31.6545 76.4271 32.3345 73.885 32.635C76.5619 31.0324 78.5653 28.5119 79.5225 25.5425C77.0054 27.0361 74.2516 28.0888 71.38 28.655C69.4466 26.5992 66.8896 25.2379 64.1047 24.7818C61.3197 24.3256 58.462 24.8001 55.9739 26.1317C53.4857 27.4633 51.5058 29.5778 50.3405 32.1481C49.1752 34.7183 48.8894 37.601 49.5275 40.35C44.4294 40.0944 39.442 38.7696 34.8891 36.4615C30.3362 34.1534 26.3196 30.9136 23.1 26.9525C21.4602 29.7754 20.958 33.1171 21.6956 36.2973C22.4331 39.4775 24.3551 42.257 27.07 44.07C25.0294 44.0095 23.0332 43.459 21.25 42.465C21.25 42.5175 21.25 42.5725 21.25 42.6275C21.2508 45.588 22.2757 48.4572 24.1507 50.7482C26.0258 53.0393 28.6356 54.6113 31.5375 55.1975C29.6497 55.7123 27.669 55.7876 25.7475 55.4175C26.5669 57.9654 28.1622 60.1935 30.3102 61.7902C32.4582 63.3868 35.0515 64.2722 37.7275 64.3225C33.1868 67.8911 27.5776 69.8283 21.8025 69.8225C20.7823 69.8205 19.763 69.7587 18.75 69.6375C24.6141 73.4007 31.4373 75.3968 38.405 75.3875" fill="white"/>
</svg>
