<svg width="101" height="101" viewBox="0 0 101 101" fill="none" xmlns="http://www.w3.org/2000/svg">
<circle cx="50.5" cy="50.5" r="47.5" stroke="black" stroke-width="6"/>
<path d="M64 61.5C58 59.5 56.1667 51.3333 56.5 49L55.5 48C55 48.5 55.5 52.5 55.5 54.5C55.5 56.5 56.8333 59.3333 57.5 60.5C58.6667 62 62.4 65 68 65C73.6 65 77.3333 62 78.5 60.5C76.1667 61.6667 70 63.5 64 61.5Z" fill="black" stroke="black" stroke-width="6" stroke-linecap="round" stroke-linejoin="round"/>
<path d="M42.5 56C42.9 50.4 41.6667 43.3333 41 40.5L42.5 39.5C43.6667 41.8333 44.5 49 43.5 56C42.3886 63.7798 34.6667 69.5 31.5 71.5C35 68.6667 42.1 61.6 42.5 56Z" fill="black" stroke="black" stroke-width="7" stroke-linejoin="round"/>
<path d="M22.4278 45.6026C29.2319 44.1179 49.2865 38.6982 75.0722 28.8974C49.2258 39.0935 29.4595 42.6352 22.8071 43.1316L22.4278 45.6026Z" stroke="black" stroke-width="7" stroke-linecap="round" stroke-linejoin="round"/>
</svg>
