<?xml version="1.0" standalone="no"?>
<!DOCTYPE svg PUBLIC "-//W3C//DTD SVG 20010904//EN"
 "http://www.w3.org/TR/2001/REC-SVG-20010904/DTD/svg10.dtd">
<svg version="1.0" xmlns="http://www.w3.org/2000/svg"
 width="700.000000pt" height="700.000000pt" viewBox="0 0 700.000000 700.000000"
 preserveAspectRatio="xMidYMid meet">
<metadata>
Created by potrace 1.11, written by Peter Selinger 2001-2013
</metadata>
<g transform="translate(0.000000,700.000000) scale(0.100000,-0.100000)"
fill="#000000" stroke="none">
<path d="M3278 6996 c-1 -2 -41 -6 -88 -10 -87 -7 -105 -9 -225 -27 -116 -18
-123 -19 -192 -35 -150 -34 -203 -47 -313 -82 -1001 -310 -1821 -1068 -2210
-2043 -66 -165 -142 -408 -165 -530 -3 -13 -11 -58 -20 -99 -29 -146 -35 -190
-52 -370 -15 -162 -8 -591 12 -711 2 -13 6 -46 9 -74 9 -78 22 -152 51 -285
69 -324 255 -784 418 -1038 26 -40 47 -76 47 -81 0 -5 3 -11 8 -13 4 -2 33
-41 64 -88 170 -255 432 -535 708 -755 93 -74 371 -265 386 -265 4 0 15 -6 23
-14 25 -22 281 -150 404 -202 165 -70 441 -158 591 -190 88 -19 210 -41 271
-49 22 -2 56 -7 75 -10 187 -26 697 -27 838 0 16 3 104 15 147 20 184 24 545
127 775 222 479 198 962 543 1282 917 34 39 64 73 68 76 17 13 181 236 245
335 80 123 176 294 236 422 21 47 39 87 39 89 0 2 11 27 24 56 57 127 151 421
182 573 16 77 54 301 60 350 4 33 9 76 11 95 8 71 10 517 3 595 -17 172 -22
220 -25 225 -2 3 -6 30 -10 60 -3 30 -10 71 -15 90 -5 19 -12 51 -15 70 -12
71 -66 270 -101 376 -104 312 -227 563 -410 839 -479 723 -1211 1244 -2044
1455 -113 29 -241 56 -310 65 -19 3 -46 7 -60 10 -13 2 -52 7 -86 11 -33 3
-74 8 -90 10 -33 5 -540 14 -546 10z m437 -420 c97 -6 119 -9 208 -21 671 -94
1284 -400 1757 -876 88 -88 176 -187 277 -313 38 -47 165 -240 218 -329 48
-83 76 -139 165 -332 46 -100 121 -325 155 -465 31 -130 60 -293 70 -395 3
-33 8 -85 11 -115 7 -73 7 -365 0 -460 -11 -130 -19 -192 -51 -375 -9 -53 -60
-250 -87 -335 -82 -256 -206 -516 -364 -758 -30 -46 -59 -89 -64 -95 -6 -7
-35 -46 -66 -87 -144 -191 -407 -453 -578 -575 -15 -11 -47 -34 -70 -51 -53
-40 -196 -134 -203 -134 -3 0 -17 -8 -31 -19 -94 -65 -426 -216 -596 -270 -92
-30 -261 -76 -310 -85 -11 -2 -59 -11 -106 -20 -152 -29 -348 -47 -540 -49
-83 -1 -325 11 -359 18 -10 2 -42 6 -72 10 -362 46 -788 191 -1119 382 -56 32
-295 190 -313 206 -7 7 -33 27 -57 46 -145 112 -370 332 -465 455 -16 21 -35
44 -42 51 -26 27 -157 214 -207 295 -171 277 -324 649 -381 925 -3 11 -9 40
-15 65 -12 59 -28 153 -35 211 -3 26 -8 57 -10 70 -7 35 -18 253 -18 354 0
186 18 381 58 603 13 73 76 303 109 399 90 258 197 471 352 703 143 215 332
433 519 600 287 256 665 477 1035 605 97 33 284 86 355 100 82 16 184 34 220
39 22 3 63 8 90 11 153 19 352 23 560 11z"/>
<path d="M4920 5151 c-516 -193 -811 -296 -1170 -408 -166 -52 -306 -93 -334
-99 -11 -2 -40 -10 -65 -18 -203 -66 -990 -254 -1221 -291 -19 -3 -57 -10 -85
-15 -88 -18 -99 -20 -145 -25 -25 -3 -72 -10 -105 -15 -74 -12 -131 -18 -215
-26 -97 -9 -164 -48 -205 -119 -31 -52 -65 -232 -60 -316 8 -126 117 -224 247
-220 26 1 179 35 340 76 161 41 302 77 313 80 11 3 106 29 210 59 247 71 228
69 237 21 25 -141 45 -401 43 -570 -2 -193 -13 -236 -95 -380 -99 -173 -350
-460 -540 -619 -97 -80 -125 -131 -124 -221 0 -104 43 -173 138 -222 39 -20
139 -22 186 -3 32 13 178 105 190 120 3 3 23 19 45 35 115 84 344 302 411 391
16 22 35 46 43 54 33 34 143 215 181 296 109 231 144 438 144 849 0 191 -3
261 -21 410 -11 89 -11 87 32 101 171 54 864 285 1005 334 96 34 200 70 230
79 30 10 105 36 165 59 61 22 162 59 225 82 283 103 416 160 450 192 151 148
55 406 -154 414 -55 2 -84 -6 -296 -85z"/>
<path d="M3775 3867 c-45 -18 -68 -37 -103 -88 -49 -73 -54 -134 -38 -469 4
-80 9 -158 12 -175 18 -112 64 -247 128 -374 65 -128 203 -251 385 -341 135
-67 234 -97 416 -125 48 -7 249 -8 285 0 14 3 52 10 85 15 220 39 454 159 605
310 77 77 94 110 94 186 1 77 -37 144 -103 181 -65 36 -126 34 -232 -10 -73
-30 -112 -42 -164 -53 -5 -1 -28 -6 -50 -12 -85 -23 -284 -33 -390 -20 -184
21 -291 68 -379 162 -112 121 -193 325 -201 505 -6 118 -25 160 -110 240 -84
78 -159 99 -240 68z"/>
</g>
</svg>
