<?xml version="1.0" standalone="no"?>
<!DOCTYPE svg PUBLIC "-//W3C//DTD SVG 20010904//EN"
 "http://www.w3.org/TR/2001/REC-SVG-20010904/DTD/svg10.dtd">
<svg version="1.0" xmlns="http://www.w3.org/2000/svg"
 width="2016.000000pt" height="2016.000000pt" viewBox="0 0 2016.000000 2016.000000"
 preserveAspectRatio="xMidYMid meet">
<metadata>
Created by potrace 1.11, written by Peter Selinger 2001-2013
</metadata>
<g transform="translate(0.000000,2016.000000) scale(0.100000,-0.100000)"
fill="#000000" stroke="none">
<path d="M5602 18968 l3 -1193 4477 0 4478 0 0 1193 0 1192 -4480 0 -4480 0 2
-1192z"/>
<path d="M6370 16930 c-3 -270 2 -13411 5 -13455 8 -123 16 -202 30 -305 3
-19 7 -51 10 -70 2 -19 4 -35 5 -35 1 0 3 -11 6 -25 27 -157 77 -348 135 -518
27 -81 51 -151 53 -157 1 -5 9 -26 18 -45 9 -19 29 -64 43 -100 37 -89 156
-323 169 -332 6 -4 7 -8 3 -8 -4 0 3 -15 17 -33 15 -19 26 -37 26 -41 0 -5 14
-28 30 -53 17 -24 30 -46 30 -48 0 -3 23 -36 50 -75 28 -39 50 -75 50 -80 0
-6 4 -10 8 -10 5 0 26 -25 48 -57 21 -31 43 -61 49 -67 5 -6 43 -51 84 -101
83 -101 324 -345 416 -420 33 -28 62 -53 65 -56 5 -6 184 -142 240 -182 56
-40 132 -87 141 -87 5 0 9 -3 9 -8 0 -4 21 -18 48 -32 26 -13 49 -27 52 -30
14 -14 242 -131 335 -172 39 -17 90 -39 114 -50 67 -30 303 -115 346 -124 6
-1 35 -9 66 -18 31 -9 65 -18 75 -20 11 -2 39 -10 64 -16 25 -7 54 -14 65 -16
11 -1 45 -8 75 -14 71 -14 164 -30 215 -36 22 -2 56 -7 75 -9 237 -35 747 -24
990 20 19 3 49 8 66 9 16 2 39 6 50 9 10 3 36 8 58 12 21 3 41 7 45 10 4 2 18
6 32 9 13 3 35 7 49 10 38 8 113 27 130 33 22 9 32 11 64 18 16 3 38 11 48 16
11 6 29 12 40 14 12 3 53 17 92 32 39 15 76 28 81 29 46 9 386 172 499 238 43
25 82 46 87 46 5 0 9 5 9 10 0 6 4 10 9 10 9 0 135 79 158 99 7 6 16 11 22 11
5 0 11 3 13 8 2 4 42 36 91 72 48 35 87 68 87 73 0 4 4 6 9 3 5 -4 11 -3 13 1
1 5 35 35 73 68 113 96 243 223 345 334 39 43 89 101 125 146 22 27 48 57 58
67 9 10 18 21 19 26 1 6 76 110 88 122 14 14 120 181 120 190 0 5 4 10 9 10 5
0 13 10 17 22 3 12 21 44 39 72 43 68 195 379 195 400 0 9 4 16 10 16 5 0 9 3
8 7 -1 8 4 24 22 68 27 66 52 135 55 151 2 11 4 20 5 22 2 1 3 5 4 10 1 4 8
27 17 52 17 46 48 153 53 180 1 8 8 33 14 55 6 22 14 56 17 75 3 19 8 42 10
50 2 8 7 30 10 48 7 43 14 82 19 109 3 11 7 43 11 70 4 26 9 59 11 73 6 41 17
210 18 287 1 40 5 73 10 73 6 0 5 5 -2 12 -7 7 -8 17 -1 30 7 12 6 18 -1 18
-8 0 -8 6 0 20 8 14 8 20 0 20 -8 0 -8 6 0 20 8 14 8 20 0 20 -8 0 -8 6 0 20
8 14 8 20 0 20 -6 0 -8 5 -5 11 10 16 12 79 2 79 -4 0 -3 8 2 18 6 11 6 24 0
34 -6 10 -6 19 0 23 7 4 7 15 1 30 -6 16 -6 25 0 25 6 0 6 9 0 25 -6 16 -6 25
0 25 6 0 6 9 0 25 -5 14 -6 25 -2 25 4 0 7 29 7 65 0 36 -4 65 -8 65 -4 0 -3
9 3 19 7 13 7 22 0 26 -7 4 -7 12 0 25 7 13 7 21 0 25 -6 4 -7 13 -1 23 6 11
6 24 0 34 -6 11 -6 19 1 23 7 4 6 14 -2 28 -6 12 -10 24 -9 27 2 3 7 13 12 23
7 11 6 17 -1 17 -8 0 -8 6 0 20 8 14 8 20 0 20 -8 0 -8 6 0 20 8 14 8 20 0 20
-8 0 -8 6 0 20 8 14 8 20 0 20 -8 0 -8 6 0 20 8 14 8 20 0 20 -8 0 -8 6 0 20
8 14 8 20 0 20 -8 0 -8 6 0 20 8 14 8 20 0 20 -6 0 -8 5 -5 11 10 16 12 79 2
79 -4 0 -3 9 3 19 7 13 7 22 0 26 -7 4 -7 12 0 25 7 13 7 21 0 25 -7 4 -7 13
0 26 7 12 7 19 1 19 -7 0 -7 9 -1 25 6 15 6 26 0 30 -7 4 -6 13 0 25 6 11 6
21 1 25 -5 3 -6 17 -2 33 5 15 4 37 0 50 -5 12 -5 22 -1 22 4 0 7 11 7 25 0
14 -3 25 -7 25 -4 0 -3 11 2 25 6 15 6 26 0 30 -6 4 -7 13 -1 23 6 11 6 24 0
34 -6 11 -6 19 1 23 7 4 6 14 -2 28 -6 12 -10 24 -9 27 2 3 7 13 12 23 7 11 6
17 -1 17 -8 0 -8 6 0 20 8 14 8 20 0 20 -8 0 -8 6 0 20 8 14 8 20 0 20 -8 0
-8 6 0 20 8 14 8 20 0 20 -8 0 -8 6 0 20 8 14 8 20 0 20 -8 0 -8 6 0 20 8 14
8 20 0 20 -8 0 -8 6 0 20 8 14 8 20 0 20 -6 0 -8 5 -5 11 10 16 12 79 2 79 -4
0 -3 8 2 18 6 11 6 24 0 34 -6 10 -6 19 0 23 7 4 7 15 1 30 -6 16 -6 25 0 25
6 0 6 9 0 25 -6 16 -6 25 0 25 6 0 6 9 0 25 -5 14 -6 25 -2 25 4 0 7 29 7 65
0 36 -4 65 -8 65 -4 0 -3 9 3 19 7 13 7 22 0 26 -7 4 -7 12 0 25 7 13 7 21 0
25 -6 4 -7 13 -1 23 6 11 6 24 0 34 -6 11 -6 19 1 23 7 4 6 14 -2 28 -6 12
-10 24 -9 27 2 3 7 13 12 22 7 12 6 18 -1 18 -8 0 -8 6 0 20 8 14 8 20 0 20
-8 0 -8 6 0 20 8 14 8 20 0 20 -8 0 -8 6 0 20 8 14 8 20 0 20 -8 0 -8 6 0 20
8 14 8 20 0 20 -8 0 -8 6 0 20 8 14 8 20 0 20 -8 0 -8 6 0 20 8 14 8 20 0 20
-6 0 -8 5 -5 11 10 16 12 79 2 79 -4 0 -3 9 3 19 7 13 7 22 0 26 -7 4 -7 12 0
25 7 13 7 21 0 25 -7 4 -7 13 0 26 7 12 7 19 1 19 -7 0 -7 9 -1 25 6 15 6 26
0 30 -7 4 -6 13 0 25 6 11 6 21 1 25 -5 3 -6 17 -2 33 5 15 4 37 0 50 -5 12
-5 22 -1 22 4 0 7 11 7 25 0 14 -3 25 -7 25 -4 0 -3 11 2 25 6 15 6 26 0 30
-6 4 -7 13 -1 24 6 10 6 23 1 31 -5 8 -5 19 0 25 5 6 5 17 1 24 -5 7 -5 28 -1
47 5 20 4 34 -1 34 -6 0 -5 8 1 19 7 13 7 22 0 26 -7 4 -7 12 0 25 7 13 7 21
0 25 -7 4 -7 13 0 26 7 12 7 19 1 19 -7 0 -7 9 -1 25 6 15 6 26 0 30 -7 4 -6
13 0 25 6 11 6 21 1 25 -5 3 -6 17 -2 33 5 15 4 37 0 50 -5 12 -5 22 -1 22 4
0 7 11 7 25 0 14 -3 25 -7 25 -4 0 -3 11 2 25 6 15 6 26 0 30 -6 4 -7 13 -1
23 6 11 6 24 0 34 -6 11 -6 19 1 23 7 4 6 14 -2 28 -6 12 -11 22 -11 22 0 0 5
10 12 23 8 15 8 22 1 22 -8 0 -8 6 0 20 8 14 8 20 0 20 -8 0 -8 6 0 20 8 14 8
20 0 20 -8 0 -8 6 0 20 8 14 8 20 0 20 -8 0 -8 6 0 20 8 14 8 20 0 20 -8 0 -8
6 0 20 8 14 8 20 0 20 -8 0 -8 6 0 20 8 14 8 20 0 20 -6 0 -8 5 -5 11 10 16
12 79 2 79 -4 0 -3 8 2 18 6 11 6 24 0 34 -6 10 -6 19 0 23 7 4 7 15 1 30 -6
16 -6 25 0 25 6 0 6 9 0 25 -6 16 -6 25 0 25 6 0 6 9 0 25 -5 14 -6 25 -2 25
4 0 7 29 7 65 0 36 -4 65 -8 65 -4 0 -3 9 3 19 7 13 7 22 0 26 -7 4 -7 12 0
25 7 13 7 21 0 25 -6 4 -7 13 -1 23 6 11 6 24 0 34 -6 11 -6 19 1 23 7 4 6 14
-2 28 -6 12 -11 22 -11 22 0 0 5 10 12 23 8 15 8 22 1 22 -8 0 -8 6 0 20 8 14
8 20 0 20 -8 0 -8 6 0 20 8 14 8 20 0 20 -8 0 -8 6 0 20 8 14 8 20 0 20 -8 0
-8 6 0 20 8 14 8 20 0 20 -8 0 -8 6 0 20 8 14 8 20 0 20 -8 0 -8 6 0 20 8 14
8 20 0 20 -6 0 -8 5 -5 11 10 16 12 79 2 79 -4 0 -3 9 3 19 7 13 7 22 0 26 -7
4 -7 12 0 25 7 13 7 21 0 25 -7 4 -7 13 0 26 7 12 7 19 1 19 -7 0 -7 9 -1 25
6 15 6 26 0 30 -7 4 -6 13 0 25 6 11 6 21 1 25 -5 3 -6 17 -2 33 5 15 4 37 0
50 -5 12 -5 22 -1 22 4 0 7 11 7 25 0 14 -3 25 -7 25 -4 0 -3 11 2 25 6 15 6
26 0 30 -6 4 -7 13 -1 23 6 11 6 24 0 34 -6 11 -6 19 1 23 6 4 7 13 1 23 -5 9
-5 26 -1 37 4 11 4 28 -1 37 -6 10 -5 19 1 23 6 4 6 15 0 30 -6 15 -6 25 0 25
5 0 5 12 0 30 -5 18 -5 32 1 35 5 4 5 14 -1 25 -7 13 -7 21 0 25 7 4 7 12 0
24 -5 10 -6 21 -3 25 9 8 10 66 1 66 -4 0 -3 11 2 25 6 15 6 26 0 30 -7 4 -6
13 0 25 6 12 7 21 0 25 -6 4 -6 15 0 30 6 16 6 25 -1 25 -6 0 -6 6 0 18 6 11
6 24 0 34 -6 11 -6 19 1 23 6 4 7 13 1 23 -5 9 -5 26 -1 37 4 11 4 28 -1 37
-6 10 -5 19 1 23 6 4 6 15 0 30 -6 15 -6 25 0 25 5 0 5 12 0 30 -5 18 -5 32 1
35 5 4 5 14 -1 25 -7 13 -7 21 0 25 7 4 7 12 0 24 -5 10 -6 21 -3 25 9 8 10
66 1 66 -4 0 -3 11 2 25 6 15 6 26 0 30 -7 4 -6 13 0 25 6 12 7 21 0 25 -6 4
-6 15 0 30 6 16 6 25 -1 25 -6 0 -6 6 0 18 6 11 6 24 1 32 -5 8 -5 19 0 25 5
6 5 17 1 24 -5 7 -5 28 -1 47 5 20 4 34 -1 34 -6 0 -5 8 1 19 7 13 7 22 0 26
-7 4 -7 12 0 25 7 13 7 21 0 25 -7 4 -7 13 0 26 7 12 7 19 1 19 -7 0 -7 9 -1
25 6 15 6 26 0 30 -7 4 -6 13 0 25 6 11 6 21 1 25 -5 3 -6 17 -2 33 5 15 4 37
0 50 -5 12 -5 22 -1 22 4 0 7 11 7 25 0 14 -3 25 -7 25 -4 0 -3 11 2 25 6 15
6 26 0 30 -6 4 -7 13 -1 23 6 11 6 24 0 34 -6 11 -6 19 1 23 7 4 6 14 -2 28
-6 12 -11 22 -11 22 0 0 5 10 12 23 8 15 8 22 1 22 -8 0 -8 6 0 20 8 14 8 20
0 20 -8 0 -8 6 0 20 8 14 8 20 0 20 -8 0 -8 6 0 20 8 14 8 20 0 20 -8 0 -8 6
0 20 8 14 8 20 0 20 -8 0 -8 6 0 20 8 14 8 20 0 20 -8 0 -8 6 0 20 8 14 8 20
0 20 -6 0 -8 5 -5 11 10 16 12 79 2 79 -4 0 -3 8 2 18 6 11 6 24 0 34 -6 10
-6 19 0 23 7 4 7 15 1 30 -6 16 -6 25 0 25 6 0 6 9 0 25 -6 16 -6 25 0 25 6 0
6 9 0 25 -5 14 -6 25 -2 25 4 0 7 29 7 65 0 36 -4 65 -8 65 -4 0 -3 9 3 19 7
13 7 22 0 26 -7 4 -7 12 0 25 7 13 7 21 0 25 -6 4 -7 13 -1 23 6 11 6 24 0 34
-6 11 -6 19 1 23 7 4 6 14 -2 28 -6 12 -11 22 -11 22 0 0 5 10 12 23 8 15 8
22 1 22 -8 0 -8 6 0 20 8 14 8 20 0 20 -8 0 -8 6 0 20 8 14 8 20 0 20 -8 0 -8
6 0 20 8 14 8 20 0 20 -8 0 -8 6 0 20 8 14 8 20 0 20 -8 0 -8 6 0 20 8 14 8
20 0 20 -8 0 -8 6 0 20 8 14 8 20 0 20 -6 0 -8 5 -5 11 10 16 12 79 2 79 -4 0
-3 9 3 19 7 13 7 22 0 26 -7 4 -7 12 0 25 7 13 7 21 0 25 -7 4 -7 13 0 26 7
12 7 19 1 19 -7 0 -7 9 -1 25 6 15 6 26 0 30 -7 4 -6 13 0 25 6 11 6 21 1 25
-5 3 -6 17 -2 33 5 15 4 37 0 50 -5 12 -5 22 -1 22 4 0 7 11 7 25 0 14 -3 25
-7 25 -4 0 -3 11 2 25 6 15 6 26 0 30 -6 4 -7 13 -1 23 6 11 6 24 0 34 -6 11
-6 19 1 23 6 4 7 13 1 23 -5 9 -5 26 -1 37 4 11 4 28 -1 37 -6 10 -5 19 1 23
6 4 6 15 0 30 -6 15 -6 25 0 25 5 0 5 12 0 30 -5 18 -5 32 1 35 5 4 5 14 -1
25 -7 13 -7 21 0 25 7 4 7 12 0 24 -5 10 -6 21 -3 25 9 8 10 66 1 66 -4 0 -3
11 2 25 6 15 6 26 0 30 -7 4 -6 13 0 25 6 12 7 21 0 25 -6 4 -6 15 0 30 6 16
6 25 -1 25 -6 0 -6 6 0 18 6 11 6 24 0 34 -6 11 -6 19 1 23 6 4 7 13 1 23 -5
9 -5 26 -1 37 4 11 4 28 -1 37 -6 10 -5 19 1 23 6 4 6 15 0 30 -6 15 -6 25 0
25 5 0 5 12 0 30 -5 18 -5 32 1 35 5 4 5 14 -1 25 -7 13 -7 21 0 25 7 4 7 12
0 24 -5 10 -6 21 -3 25 9 8 10 66 1 66 -4 0 -3 11 2 25 6 15 6 26 0 30 -7 4
-6 13 0 25 6 12 7 21 0 25 -6 4 -6 15 0 30 6 16 6 25 -1 25 -6 0 -6 6 0 18 6
11 6 24 0 34 -6 11 -6 19 1 23 6 4 7 13 1 23 -5 9 -5 26 -1 37 4 11 4 28 -1
37 -6 10 -5 19 1 23 6 4 6 15 0 30 -6 15 -6 25 0 25 5 0 5 12 0 30 -5 18 -5
32 1 35 5 4 5 14 -1 25 -7 13 -7 21 0 25 7 4 7 12 0 24 -5 10 -6 21 -3 25 9 8
10 66 1 66 -4 0 -3 11 2 25 6 15 6 26 0 30 -7 4 -6 13 0 25 6 12 7 21 0 25 -6
4 -6 15 0 30 6 16 6 25 -1 25 -6 0 -6 6 0 18 6 11 6 24 0 34 -6 11 -6 19 1 23
6 4 7 13 1 23 -5 9 -5 26 -1 37 4 11 4 28 -1 37 -6 10 -5 19 1 23 6 4 6 15 0
30 -6 15 -6 25 0 25 5 0 5 12 0 30 -5 18 -5 32 1 35 5 4 5 14 -1 25 -7 13 -7
21 0 25 7 4 7 12 0 24 -5 10 -6 21 -3 25 9 8 10 66 1 66 -4 0 -3 11 2 25 6 15
6 26 0 30 -7 4 -6 13 0 25 6 12 7 21 0 25 -6 4 -6 15 0 30 6 16 6 25 -1 25 -6
0 -6 6 0 18 6 11 6 24 1 32 -5 8 -5 19 0 25 5 6 5 17 1 24 -5 7 -5 28 -1 47 5
20 4 34 -1 34 -6 0 -5 8 1 19 7 13 7 22 0 26 -7 4 -7 12 0 25 7 13 7 21 0 25
-7 4 -7 13 0 26 7 12 7 19 1 19 -7 0 -7 9 -1 25 6 15 6 26 0 30 -7 4 -6 13 0
25 6 11 6 21 1 25 -5 3 -6 17 -2 33 5 15 4 37 0 50 -5 12 -5 22 -1 22 4 0 7
11 7 25 0 14 -3 25 -7 25 -4 0 -3 11 2 25 6 15 6 26 -1 30 -6 4 -6 13 0 23 6
10 6 23 0 34 -6 10 -5 19 1 23 6 4 7 11 4 17 -4 6 -7 20 -8 32 l-1 21 -398 0
-398 0 3 -32 c1 -17 0 -35 -4 -38 -3 -4 -3 -19 1 -33 5 -15 5 -36 1 -47 -4
-11 -4 -34 1 -52 4 -18 3 -36 -2 -39 -5 -3 -6 -13 -1 -22 9 -21 8 -93 -2 -110
-4 -6 -4 -12 1 -12 4 0 7 -42 5 -92 -3 -115 -3 -101 0 -175 2 -37 -1 -63 -7
-63 -7 0 -7 -3 0 -8 9 -6 13 -255 5 -287 -1 -5 -1 -14 1 -20 3 -13 7 -658 13
-2265 2 -696 5 -1269 6 -1275 1 -5 2 -14 1 -20 -2 -12 0 -287 3 -375 1 -36 -2
-71 -7 -77 -5 -7 -6 -13 -1 -13 5 0 10 -388 11 -883 1 -485 2 -1030 3 -1210 1
-180 0 -330 -3 -333 -7 -7 -5807 -7 -5814 0 -3 3 -6 1687 -7 3743 l-1 3738
-397 0 -398 1 0 -46z"/>
<path d="M9105 15870 c-55 -4 -109 -9 -120 -13 -11 -3 -32 -8 -46 -11 -70 -12
-218 -85 -290 -143 -84 -68 -174 -181 -215 -268 -10 -22 -22 -43 -27 -46 -5
-3 -8 -9 -7 -13 1 -4 -1 -17 -5 -29 -7 -21 -14 -50 -19 -72 -1 -5 -4 -14 -7
-20 -16 -31 -15 -324 1 -342 3 -4 5 -11 14 -55 5 -21 12 -38 17 -38 5 0 8 -3
7 -7 -3 -16 39 -110 52 -118 6 -4 8 -11 5 -16 -4 -5 -1 -9 5 -9 6 0 14 -8 17
-17 10 -26 21 -39 104 -122 99 -99 249 -184 361 -205 13 -3 23 -5 23 -6 0 -11
223 -17 275 -7 19 4 49 9 65 12 208 39 441 230 533 437 20 44 42 109 41 118 0
3 4 17 9 31 6 14 13 59 17 100 4 40 9 77 11 81 3 5 2 8 -3 8 -4 0 -8 17 -8 37
1 36 -6 83 -19 146 -13 57 -60 164 -102 228 -89 140 -222 248 -379 309 -11 4
-33 13 -49 19 -16 7 -52 15 -80 18 -28 3 -58 8 -66 12 -8 4 -60 4 -115 1z"/>
<path d="M10940 11853 c-42 -6 -114 -26 -140 -40 -14 -7 -28 -13 -32 -13 -15
0 -105 -66 -143 -104 -61 -62 -89 -104 -118 -176 -32 -81 -39 -116 -41 -200
-3 -138 61 -301 149 -384 127 -118 239 -165 395 -164 143 0 257 44 365 141 60
54 136 169 150 227 1 3 4 19 8 35 15 63 17 82 17 135 0 67 -6 126 -15 140 -3
5 -8 18 -10 27 -11 53 -82 173 -129 218 -79 75 -189 135 -280 151 -40 7 -145
11 -176 7z"/>
</g>
</svg>
